<svg width="1080" height="1348" viewBox="0 0 1080 1348" fill="none" xmlns="http://www.w3.org/2000/svg">
<g clip-path="url(#clip0_362_384)">
<path d="M2.03476e-05 1347.98V1023.95C-0.0175243 966.361 11.3109 909.329 33.3383 856.116C55.3656 802.903 87.6603 754.551 128.378 713.821C169.095 673.091 217.438 640.781 270.644 618.738C323.851 596.694 380.878 585.349 438.47 585.349V909.48C438.47 1025.77 392.275 1137.3 310.047 1219.53C227.819 1301.77 116.292 1347.97 2.03476e-05 1347.98Z" fill="#06697B"/>
<path d="M438.47 585.348C380.887 585.348 323.868 574.006 270.669 551.969C217.469 529.932 169.132 497.633 128.416 456.914C87.6995 416.195 55.4025 367.856 33.3689 314.655C11.3353 261.454 -0.00350756 204.434 8.13906e-07 146.851V-0.0800781H438.47V585.348Z" fill="#06697B"/>
<path d="M1079.97 659.242V1347.98C1001.34 1348 924.155 1326.89 856.479 1286.85C788.804 1246.82 733.129 1189.34 695.28 1120.42C661.699 1058.98 651.361 1003.94 646.125 974.77C640.247 942.071 639.045 917.066 638.644 793.831C638.457 740.081 638.511 694.291 638.644 659.402C639.018 644.682 637.763 608.644 612.838 582.437C576.292 544.074 501.865 540.788 438.444 585.348C615.59 378.228 859.069 336.74 981.503 430.883C1065.01 494.999 1077.68 611.155 1079.97 659.242Z" fill="#06697B"/>
</g>
<defs>
<clipPath id="clip0_362_384">
<rect width="1080" height="1347.98" fill="white"/>
</clipPath>
</defs>
</svg>
