<svg width="98" height="39" viewBox="0 0 98 39" fill="none" xmlns="http://www.w3.org/2000/svg">
<path fill-rule="evenodd" clip-rule="evenodd" d="M0 35.2469L5.31278 30.5801L5.27111 14.5952C5.28234 13.1769 5.59921 11.778 6.19988 10.4949C6.80055 9.21168 7.67074 8.07476 8.75046 7.16247C12.203 4.28578 19.3463 3.44462 23.1947 7.45283C26.8407 11.2515 27.0223 15.125 24.3525 19.5763C23.409 21.1568 21.2273 22.3602 21.2273 22.3602C21.2273 22.3602 24.6323 22.9409 27.2127 21.1927C31.6505 18.1993 32.0463 13.9127 30.8826 10.1559C30.353 8.41562 29.4715 6.80416 28.2935 5.42262C27.1155 4.04107 25.6664 2.91925 24.037 2.12751C17.6557 -0.952737 9.25942 -0.832999 4.54191 4.13012C1.24411 7.59951 0.0535743 10.4403 0.116078 15.6698C0.160723 19.3517 0 35.2469 0 35.2469Z" fill="#0047AA"/>
<path fill-rule="evenodd" clip-rule="evenodd" d="M16.8546 6.01681C16.8546 6.01681 13.5032 7.72307 12.5687 10.507C11.6341 13.2909 11.6311 18.1851 14.3991 20.3853C17.1671 22.5855 19.3994 23.4835 21.3638 23.5733C23.3282 23.6631 26.8551 23.0345 28.6856 21.6875C30.5161 20.3404 32.8822 17.2871 32.7394 13.7399C32.5965 10.1927 31.7661 7.78294 29.5339 4.98407C27.3016 2.18521 22.971 0 22.971 0C30.025 0.113751 37.82 5.77434 37.9272 13.1113C38.0373 20.6547 33.037 26.0728 26.9057 27.839H92.5431V28.1982H25.4235C22.2882 28.7989 19.0447 28.4067 16.1403 27.0756C14.4884 26.3123 12.0329 24.8455 12.0329 24.8455L11.9436 33.8707L6.6755 38.6752L6.63086 14.3685C6.86599 10.3872 9.47625 6.72027 13.5062 6.08266C14.6142 5.90741 15.7407 5.88525 16.8546 6.01681Z" fill="#FFBA3F"/>
<path fill-rule="evenodd" clip-rule="evenodd" d="M35.0928 2.46869L40.3163 6.68944L40.3579 0.223612H41.2985L52.683 11.6735L64.0675 0.178711L65.0051 0.223612V25.0542L58.9333 25.0093V14.1431L52.683 20.3395L35.0928 2.46869Z" fill="#0047AA"/>
<path fill-rule="evenodd" clip-rule="evenodd" d="M40.4072 10.8203L50.0506 20.5639L46.479 17.825L46.5236 25.0541L40.4072 24.9194V10.8203Z" fill="#FFBA3F"/>
<path fill-rule="evenodd" clip-rule="evenodd" d="M67.8652 0.178711H73.937L73.9816 11.0898L80.1873 4.84847L98.0008 22.8989L92.5094 18.5884L92.554 25.0093H91.4826L80.1873 13.5145L68.7135 24.9644L67.8652 25.0093V0.178711Z" fill="#0047AA"/>
<path fill-rule="evenodd" clip-rule="evenodd" d="M82.8848 4.62541L86.4355 7.43026L86.4117 0.204102L92.5311 0.225056L92.5073 14.414L82.8848 4.62541Z" fill="#FFBA3F"/>
</svg>
